<svg width="433" height="102" viewBox="0 0 433 102" fill="none" xmlns="http://www.w3.org/2000/svg">
    <g clip-path="url(#clip0_3658_7927)">
        <path d="M41.2986 23.1223C43.7639 23.1223 46.1587 23.7618 48.2718 24.9699L66.0922 35.3448C70.3888 37.832 73.0654 42.4509 73.0654 47.4963V68.2462C73.0654 73.2204 70.3888 77.9105 66.0922 80.3976L48.2014 90.7726C46.0883 91.9806 43.6935 92.6202 41.2282 92.6202C38.7629 92.6202 36.3681 91.9806 34.255 90.7726L16.505 80.3976C12.2084 77.9105 9.53184 73.2915 9.53184 68.2462V47.4963C9.53184 42.522 12.2084 37.832 16.505 35.3448L34.3254 24.9699C36.4385 23.7618 38.8334 23.1223 41.2986 23.1223ZM41.2986 13.7422C37.2838 13.7422 33.2689 14.8081 29.7471 16.8689L11.8562 27.2438C4.74217 31.4364 0.304688 39.1111 0.304688 47.4963V68.2462C0.304688 76.5603 4.74217 84.306 11.8562 88.4986L29.6766 98.8736C33.2689 100.934 37.2837 102 41.2282 102C45.1726 102 49.2579 100.934 52.7797 98.8736L70.6001 88.4986C77.7846 84.306 82.1517 76.6314 82.1517 68.2462V47.4963C82.1517 39.1821 77.7142 31.4364 70.6001 27.2438L52.8502 16.8689C49.2579 14.8081 45.3135 13.7422 41.2986 13.7422Z" fill="white"/>
        <g opacity="0.9">
            <path opacity="0.9" d="M41.3687 38.9693C41.7209 38.9693 42.0731 39.0403 42.3548 39.2535L56.7238 47.6388C57.3578 47.9941 57.71 48.7047 57.71 49.4153V66.1857C57.71 66.8964 57.2873 67.607 56.7238 67.9623L42.4253 76.3475C42.1435 76.5607 41.7913 76.6317 41.4392 76.6317C41.087 76.6317 40.7348 76.5607 40.4531 76.3475L25.9432 67.9623C25.3093 67.607 24.9571 66.8964 24.9571 66.1857V49.4153C24.9571 48.7047 25.3797 47.9941 25.9432 47.6388L40.3122 39.2535C40.6644 39.0403 41.0165 38.9693 41.3687 38.9693ZM41.3687 32.4316C39.8896 32.4316 38.4104 32.7869 37.1426 33.5686L22.7735 42.0249C20.1674 43.5883 18.5474 46.3596 18.5474 49.4863V66.2568C18.5474 69.3124 20.1674 72.1549 22.7735 73.7182L37.1426 82.1035C38.4808 82.8851 39.96 83.2404 41.3687 83.2404C42.7775 83.2404 44.3271 82.8851 45.5949 82.1035L59.9639 73.7182C62.5701 72.1549 64.1901 69.3835 64.1901 66.2568V49.4153C64.1901 46.3596 62.5701 43.5172 59.9639 41.9539L45.6653 33.6397C44.3271 32.858 42.8479 32.4316 41.3687 32.4316Z" fill="white"/>
        </g>
        <g opacity="0.8">
            <path opacity="0.8" d="M41.2287 50.482C41.3696 50.482 41.5105 50.5531 41.6514 50.5531L47.2863 53.8219C47.568 53.964 47.7089 54.2483 47.7089 54.5325V61.0702C47.7089 61.3544 47.568 61.6387 47.2863 61.7808L41.6514 65.0496C41.5105 65.1207 41.3696 65.1207 41.2287 65.1207C41.0879 65.1207 40.947 65.0496 40.8061 65.0496L35.1712 61.7808C34.8895 61.6387 34.7486 61.3544 34.7486 61.0702V54.5325C34.7486 54.2483 34.8895 53.964 35.1712 53.8219L40.8061 50.5531C41.0174 50.5531 41.0879 50.482 41.2287 50.482ZM41.2287 47.9238C40.6653 47.9238 40.1018 48.066 39.5383 48.3502L33.9034 51.619C32.8468 52.1875 32.2129 53.3245 32.2129 54.5325V61.0702C32.2129 62.2782 32.8468 63.3441 33.9034 63.9837L39.5383 67.2525C40.0313 67.5367 40.5948 67.6789 41.2287 67.6789C41.8627 67.6789 42.3557 67.5367 42.9192 67.2525L48.5541 63.9837C49.6107 63.4152 50.2446 62.2782 50.2446 61.0702V54.5325C50.2446 53.3245 49.6107 52.2586 48.5541 51.619L42.9192 48.3502C42.4262 48.066 41.8627 47.9238 41.2287 47.9238Z" fill="white"/>
        </g>
    </g>
    <path d="M423.633 17.5417C428.404 17.5417 432.271 13.6743 432.271 8.90138C432.271 6.99221 431.653 5.23015 430.607 3.80155C429.035 1.65373 426.496 0.257812 423.633 0.257812C418.861 0.257812 414.992 4.12846 414.992 8.90138C414.992 13.6743 418.861 17.5417 423.633 17.5417Z" fill="white"/>
    <path d="M299.052 6.54434C298.32 6.20762 297.503 6.01801 296.643 6.01801C293.463 6.01801 290.885 8.59735 290.885 11.7782V80.9137C290.885 84.0978 293.463 86.6772 296.643 86.6772C299.823 86.6772 302.402 84.0978 302.402 80.9137V11.7782C302.402 9.45713 301.029 7.45643 299.052 6.54434Z" fill="white"/>
    <path d="M334.649 34.8223C334.649 34.0835 334.512 33.3773 334.26 32.73C333.42 30.5822 331.332 29.0621 328.887 29.0621C325.707 29.0621 323.129 31.6414 323.129 34.8223V40.5858C323.129 46.9475 317.972 52.1094 311.608 52.1094H310.458C307.278 52.1094 304.699 54.6888 304.699 57.8696C304.699 61.0505 307.278 63.6298 310.458 63.6298H311.608C317.972 63.6298 323.129 68.7885 323.129 75.1535V80.9137C323.129 84.0978 325.707 86.6772 328.887 86.6772C330.606 86.6772 332.149 85.9253 333.205 84.732C333.417 84.4901 333.61 84.2319 333.783 83.9573C334.015 83.5813 334.208 83.1792 334.352 82.7542C334.545 82.1756 334.649 81.5577 334.649 80.9137V75.1535C334.649 68.2687 331.633 62.0933 326.848 57.8696C328.832 56.1174 330.512 54.0317 331.799 51.6975C333.616 48.4022 334.649 44.6133 334.649 40.5858V34.8223Z" fill="white"/>
    <path d="M253.911 29.0654C238.008 29.0654 225.115 41.9621 225.115 57.8696C225.115 73.7805 238.008 86.6772 253.911 86.6772H265.432C266.71 86.6772 267.889 86.262 268.844 85.5591C269.079 85.3859 269.298 85.1963 269.504 84.9903C269.886 84.6111 270.213 84.1763 270.478 83.699C270.932 82.8752 271.194 81.9271 271.194 80.917C271.194 77.7361 268.612 75.1568 265.432 75.1568H253.911C244.368 75.1568 236.632 67.4155 236.632 57.8696C236.632 48.3238 244.368 40.5858 253.911 40.5858H254.611C262.003 40.5858 268.265 45.4273 270.406 52.1094H248.153C244.973 52.1094 242.394 54.6888 242.394 57.8696C242.394 61.0538 244.973 63.6331 248.153 63.6331H276.253C279.822 63.6331 282.711 60.7399 282.711 57.1733C282.711 41.6482 270.131 29.0654 254.611 29.0654H253.911Z" fill="white"/>
    <path d="M423.633 29.0654C426.813 29.0654 429.391 31.6447 429.391 34.8256V80.917C429.391 84.0978 426.813 86.6772 423.633 86.6772C420.45 86.6772 417.871 84.0978 417.871 80.917V34.8256C417.871 31.6447 420.45 29.0654 423.633 29.0654Z" fill="white"/>
    <path d="M345.137 57.8696C345.137 41.9621 358.03 29.0654 373.933 29.0654C389.839 29.0654 402.733 41.9621 402.733 57.8696V80.917C402.733 84.0978 400.154 86.6772 396.974 86.6772C393.794 86.6772 391.215 84.0978 391.215 80.917V57.8696C391.215 48.3238 383.476 40.5858 373.933 40.5858C364.39 40.5858 356.654 48.3238 356.654 57.8696C356.654 67.4155 364.39 75.1568 373.933 75.1568H379.695C382.875 75.1568 385.454 77.7361 385.454 80.917C385.454 84.0978 382.875 86.6772 379.695 86.6772H373.933C358.03 86.6772 345.137 73.7805 345.137 57.8696Z" fill="white"/>
    <path d="M135.759 64.5583C139.455 64.5583 142.452 61.5605 142.452 57.8631C142.452 54.1657 139.455 51.1679 135.759 51.1679C132.063 51.1679 129.066 54.1657 129.066 57.8631C129.066 61.5605 132.063 64.5583 135.759 64.5583Z" fill="white"/>
    <path fill-rule="evenodd" clip-rule="evenodd" d="M135.563 29.0654C119.66 29.0654 106.767 41.9621 106.767 57.8696C106.767 73.7805 119.66 86.6772 135.563 86.6772C151.469 86.6772 164.362 73.7805 164.362 57.8696C164.362 41.9621 151.469 29.0654 135.563 29.0654ZM118.284 57.8696C118.284 48.3238 126.02 40.5858 135.563 40.5858C145.106 40.5858 152.845 48.3238 152.845 57.8696C152.845 67.4155 145.106 75.1568 135.563 75.1568C126.02 75.1568 118.284 67.4155 118.284 57.8696Z" fill="white"/>
    <path d="M172.938 50.5402C170.212 39.6312 178.461 29.0654 189.701 29.0654H211.954C213.365 29.0654 214.66 29.5753 215.663 30.422C216.918 31.478 217.715 33.057 217.715 34.8256C217.715 38.0064 215.133 40.5858 211.954 40.5858H189.701C185.955 40.5858 183.207 44.1099 184.115 47.7451C184.442 49.0495 185.197 50.1578 186.21 50.9293C187.187 51.6746 188.403 52.1094 189.701 52.1094H200.512C208.441 52.1094 215.353 57.5068 217.275 65.2023C220.004 76.1114 211.755 86.6772 200.512 86.6772H178.259C176.507 86.6772 174.942 85.8958 173.886 84.6601C173.024 83.6532 172.501 82.3456 172.501 80.917C172.501 77.7361 175.079 75.1568 178.259 75.1568H200.512C204.261 75.1568 207.009 71.6326 206.101 67.9974C205.46 65.4311 203.156 63.6331 200.512 63.6331H189.701C181.772 63.6331 174.863 58.2358 172.938 50.5402Z" fill="white"/>
    <defs>
        <clipPath id="clip0_3658_7927">
            <rect width="81.9879" height="88.2581" fill="white" transform="translate(0.304688 13.7422)"/>
        </clipPath>
    </defs>
</svg>
