<svg width="501" height="101" viewBox="0 0 501 101" fill="none" xmlns="http://www.w3.org/2000/svg">
    <path d="M30.7774 2.88591H2.8856V30.7777L12.9856 20.6777V12.9859H20.6774L30.7774 2.88591Z" fill="white"/>
    <path d="M88.0141 20.6777V12.9859H80.3223L70.2223 2.88591H98.1141V30.7777L88.0141 20.6777Z" fill="white"/>
    <path d="M80.3223 88.0144H88.0141V80.3226L98.1141 70.2226V98.1144H70.2223L80.3223 88.0144Z" fill="white"/>
    <path d="M12.9856 80.3226V88.0144H20.6774L30.7774 98.1144H2.8856V70.2226L12.9856 80.3226Z" fill="white"/>
    <path d="M50.5 0L66.3715 15.8715H57.0319L50.4998 9.33941L43.9677 15.8715H34.6285L50.5 0Z" fill="white"/>
    <path d="M15.8714 43.9678L15.8714 34.6286L0 50.5L15.8714 66.3714L15.8714 57.0323L9.33916 50.5L15.8714 43.9678Z" fill="white"/>
    <path d="M43.9677 85.1286H34.6286L50.5 101L66.3714 85.1286H57.0319L50.4998 91.6607L43.9677 85.1286Z" fill="white"/>
    <path d="M85.1285 57.032V66.3715L101 50.5L85.1285 34.6285V43.9681L91.6604 50.5L85.1285 57.032Z" fill="white"/>
    <path fill-rule="evenodd" clip-rule="evenodd" d="M25.9714 33.868L33.8679 25.9715H67.1321L75.0285 33.8679V67.1321L67.132 75.0286H33.8679L25.9714 67.1321V33.868ZM41.8429 41.843H59.1571V59.1573H41.8429V41.843Z" fill="white"/>
    <path d="M205.814 22.4121H200.185V33.7182L194.555 33.7189L194.556 39.371L200.185 39.3703V50.6728C200.185 60.0378 207.746 67.6293 217.073 67.6293H222.703V61.9771H217.073C210.855 61.9771 205.814 56.9161 205.814 50.6728V39.37L217.096 39.3685L217.095 33.7164L205.814 33.7178V22.4121Z" fill="white"/>
    <path fill-rule="evenodd" clip-rule="evenodd" d="M256.48 50.6728C256.48 60.0378 248.919 67.6293 239.591 67.6293C230.264 67.6293 222.703 60.0378 222.703 50.6728C222.703 41.3079 230.264 33.7164 239.591 33.7164C248.919 33.7164 256.48 41.3079 256.48 50.6728ZM250.85 50.6728C250.85 56.9161 245.809 61.9771 239.591 61.9771C233.373 61.9771 228.332 56.9161 228.332 50.6728C228.332 44.4296 233.373 39.3685 239.591 39.3685C245.809 39.3685 250.85 44.4296 250.85 50.6728Z" fill="white"/>
    <path d="M138.26 67.6293C147.587 67.6293 155.148 60.0378 155.148 50.6728V33.7164H149.519V50.6728C149.519 56.9161 144.478 61.9771 138.26 61.9771C132.042 61.9771 127.001 56.9161 127.001 50.6728V33.7164H121.371V50.6728C121.371 60.0378 128.932 67.6293 138.26 67.6293Z" fill="white"/>
    <path d="M160.778 50.6728C160.778 41.3079 168.339 33.7164 177.666 33.7164C186.994 33.7164 194.555 41.3079 194.555 50.6728V67.6293H188.926V50.6728C188.926 44.4296 183.885 39.3685 177.666 39.3685C171.448 39.3685 166.407 44.4296 166.407 50.6728V67.6293H160.778V50.6728Z" fill="white"/>
    <path d="M278.998 33.7164C269.671 33.7164 262.109 41.3079 262.109 50.6728V67.6293H267.739V50.6728C267.739 44.4296 272.78 39.3685 278.998 39.3685C285.216 39.3685 290.257 44.4296 290.257 50.6728V67.6293H295.887V50.6728C295.887 41.3079 288.325 33.7164 278.998 33.7164Z" fill="white"/>
    <path fill-rule="evenodd" clip-rule="evenodd" d="M335.293 50.6728C335.293 51.6358 335.213 52.5798 335.06 53.4989H307.5C308.75 58.3744 313.158 61.9771 318.405 61.9771H329.664V67.6293H318.405C310.036 67.6293 303.09 61.5185 301.75 53.4989C301.596 52.5798 301.516 51.6358 301.516 50.6728C301.516 44.7739 304.514 39.5801 309.066 36.5425C311.74 34.7577 314.953 33.7164 318.405 33.7164C321.611 33.7164 324.609 34.6134 327.162 36.1711C327.266 36.2348 327.37 36.2996 327.473 36.3655C327.564 36.4235 327.654 36.4827 327.744 36.5425C332.294 39.5804 335.293 44.775 335.293 50.6728ZM307.5 47.8468H329.309C328.059 42.9709 323.651 39.3685 318.405 39.3685C313.158 39.3685 308.75 42.9709 307.5 47.8468Z" fill="white"/>
    <path d="M469.183 22.4307H463.555V28.0233H469.183V22.4307Z" fill="white"/>
    <path d="M463.555 33.616H469.183V67.1718H463.555V33.616Z" fill="white"/>
    <path d="M474.81 50.3939C474.81 41.1277 482.369 33.616 491.694 33.616H500.136V39.2086H491.694C485.478 39.2086 480.438 44.2164 480.438 50.3939C480.438 56.5714 485.478 61.5792 491.694 61.5792H500.136V67.1718H491.694C482.369 67.1718 474.81 59.6601 474.81 50.3939Z" fill="white"/>
    <path d="M360.847 39.2086C358.516 39.2086 356.626 41.0865 356.626 43.4031V67.1718H350.998V43.4031C350.998 37.9978 355.408 33.616 360.847 33.616C363.603 33.616 366.094 34.7407 367.882 36.5535C369.669 34.7407 372.161 33.616 374.917 33.616C380.356 33.616 384.765 37.9978 384.765 43.4031V67.1718H379.137V43.4031C379.137 41.0865 377.248 39.2086 374.917 39.2086C372.585 39.2086 370.696 41.0865 370.696 43.4031V53.1902H365.068V43.4031C365.068 41.0865 363.178 39.2086 360.847 39.2086Z" fill="white"/>
    <path d="M429.788 43.0957C429.788 37.8602 434.059 33.616 439.327 33.616H455.113V39.2086H439.327C437.167 39.2086 435.416 40.9489 435.416 43.0957C435.416 45.0561 436.885 46.7097 438.842 46.9528L449.571 48.2855C454.344 48.8785 457.927 52.9112 457.927 57.6921C457.927 62.9276 453.656 67.1718 448.388 67.1718H429.788V61.5792H448.388C450.548 61.5792 452.299 59.8389 452.299 57.6921C452.299 55.7317 450.83 54.0781 448.873 53.835L438.144 52.5023C433.37 51.9093 429.788 47.8766 429.788 43.0957Z" fill="white"/>
    <path d="M390.393 33.616V50.3939C390.393 59.6601 397.952 67.1718 407.276 67.1718C416.601 67.1718 424.16 59.6601 424.16 50.3939V33.616H418.532V50.3939C418.532 56.5714 413.493 61.5792 407.276 61.5792C401.06 61.5792 396.021 56.5714 396.021 50.3939V33.616H390.393Z" fill="white"/>
</svg>
