<svg width="693" height="130" viewBox="0 0 693 130" fill="none" xmlns="http://www.w3.org/2000/svg">
    <path d="M0 14.9425C0 6.68999 6.68999 0 14.9425 0C23.195 0 29.885 6.68999 29.885 14.9425C29.885 23.195 23.195 29.885 14.9425 29.885C6.68999 29.885 0 23.195 0 14.9425Z" fill="white"/>
    <path d="M112.069 14.9425C112.069 6.68999 118.759 0 127.011 0C135.264 0 141.954 6.68999 141.954 14.9425C141.954 23.195 135.264 29.885 127.011 29.885C118.759 29.885 112.069 23.195 112.069 14.9425Z" fill="white"/>
    <path d="M267.71 55.2874H281.754V74.7125C281.754 105.247 306.507 130 337.042 130V109.08C318.061 109.08 302.674 93.6934 302.674 74.7125V55.2874H327.965V34.3679H302.674V0H281.754V34.3679H267.71V55.2874Z" fill="#FFF4EE"/>
    <path fill-rule="evenodd" clip-rule="evenodd" d="M455.202 74.7126C455.202 105.247 430.449 130 399.915 130C369.38 130 344.627 105.247 344.627 74.7125C344.627 44.1782 369.38 19.4253 399.915 19.4253C430.449 19.4253 455.202 44.1782 455.202 74.7126ZM399.915 109.08C418.895 109.08 434.282 93.6934 434.282 74.7126C434.282 55.7318 418.895 40.3448 399.915 40.3448C380.934 40.3448 365.547 55.7318 365.547 74.7125C365.547 93.6934 380.934 109.08 399.915 109.08Z" fill="#FFF4EE"/>
    <path d="M463.947 74.7127V129.315H484.866V74.7127C484.866 55.7319 500.253 40.345 519.234 40.345C538.215 40.345 553.602 55.7319 553.602 74.7127V129.315H574.521L574.521 74.7127C574.521 44.1783 549.768 19.4254 519.234 19.4254C488.699 19.4254 463.947 44.1785 463.947 74.7127Z" fill="#FFF4EE"/>
    <path d="M149.545 127.948V74.7131C149.545 44.1788 174.298 19.4258 204.832 19.4258C235.366 19.4258 260.119 44.1788 260.119 74.7131V127.948H239.2V74.7131C239.2 55.7322 223.813 40.3453 204.832 40.3453C185.851 40.3453 170.464 55.7322 170.464 74.7131V127.948H149.545Z" fill="#FFF4EE"/>
    <path d="M4.48267 63.5057V44.8276H25.4022V63.5057C25.4022 88.6759 45.8066 109.08 70.9769 109.08C96.147 109.08 116.552 88.6759 116.552 63.5057V44.8276H137.471V63.5057C137.471 100.229 107.701 130 70.9769 130C34.2531 130 4.48267 100.229 4.48267 63.5057Z" fill="#FFF4EE"/>
    <path fill-rule="evenodd" clip-rule="evenodd" d="M603.645 81.216H682.226V81.1974H692.31C692.558 79.0703 692.686 76.9064 692.686 74.7126C692.686 44.1782 667.933 19.4253 637.399 19.4253C606.864 19.4253 582.111 44.1782 582.111 74.7126C582.111 105.247 606.864 130 637.399 130C661.467 130 681.944 114.62 689.537 93.1514H666.407C660.306 102.728 649.594 109.08 637.399 109.08C620.641 109.08 606.685 97.0871 603.645 81.216ZM606.191 60.2965C611.642 48.5168 623.566 40.3448 637.399 40.3448C651.231 40.3448 663.155 48.5168 668.606 60.2965H606.191Z" fill="#FFF4EE"/>
</svg>
