<svg width="1887" height="333" viewBox="0 0 1887 333" fill="none" xmlns="http://www.w3.org/2000/svg">
<path d="M163.895 17.5799C177.557 14.2395 191.75 12.4175 206.475 12.1139C221.351 11.6584 235.848 12.5694 249.965 14.8469C264.082 16.9725 277.896 20.3888 291.406 25.0956C304.916 29.8025 317.211 35.4203 328.293 41.9491C339.526 48.478 349.469 56.0697 358.121 64.7242C366.925 73.3787 373.756 82.5646 378.614 92.2819C382.712 100.481 385.141 112.779 385.9 129.177C386.507 141.628 385.521 147.473 382.94 146.714C382.788 146.714 382.637 146.638 382.485 146.486C380.815 145.575 379.828 146.486 379.525 149.219C379.373 150.89 379.601 152.939 380.208 155.369C380.815 158.709 380.511 162.277 379.297 166.073C378.234 169.869 376.565 172.905 374.288 175.183C368.823 180.649 366.091 184.217 366.091 185.887C366.091 190.29 357.438 200.084 340.133 215.267C322.98 230.45 305.144 244.343 286.624 256.945C268.105 269.547 257.251 274.938 254.063 273.116C251.331 271.445 249.434 272.28 248.371 275.621C247.308 278.506 237.669 283.592 219.453 290.88C201.238 298.32 188.183 302.419 180.29 303.179C173.155 303.786 167.69 305.228 163.895 307.506C155.091 313.124 125.414 317.223 74.8657 319.804C63.4808 320.412 54.7524 320.791 48.6805 320.943C42.6086 321.095 37.6751 320.943 33.8802 320.488C30.0852 320.032 27.6565 319.349 26.5939 318.438C25.5313 317.527 25 316.16 25 314.338C25 308.872 30.6165 306.139 41.8496 306.139C54.9042 306.139 76.9909 303.179 108.11 297.257C139.076 291.336 162.985 285.566 179.834 279.948C214.292 268.257 245.79 253.377 274.329 235.309C302.867 217.241 325.257 198.186 341.499 178.144C357.893 158.102 366.091 139.35 366.091 121.889C366.091 109.591 361.916 96.6092 353.567 82.9442C345.37 69.2792 335.959 59.7137 325.333 54.2477C315.162 49.0853 309.166 46.656 307.345 46.9596C305.523 47.2633 300.817 44.9858 293.227 40.1271C290.191 38.1533 285.637 36.1795 279.566 34.2056C273.494 32.08 267.801 30.5616 262.488 29.6506L242.906 26.6899L247.005 48.0984C249.282 60.0932 250.344 70.5697 250.193 79.5279C250.193 88.4861 248.902 104.277 246.322 126.9C245.411 135.554 244.121 143.298 242.451 150.13C240.933 156.811 239.567 160.531 238.352 161.29C237.138 162.049 236.075 164.479 235.165 168.578C234.254 172.678 233.798 177.157 233.798 182.015C233.798 188.089 232.129 194.921 228.789 202.513C225.601 210.105 221.73 216.558 217.176 221.872C212.623 227.186 208.448 229.843 204.653 229.843C202.68 229.843 201.238 229.388 200.327 228.477C199.568 227.566 199.568 226.503 200.327 225.288C202.907 221.189 206.702 203.348 211.712 171.767C216.873 140.034 219.909 115.74 220.82 98.8867C222.034 76.719 220.516 64.7242 216.266 62.9022C214.748 62.143 212.926 63.4336 210.801 66.7739C206.702 73.1509 203.818 73.8342 202.148 68.8237C201.086 65.3315 200.858 59.5618 201.465 51.5146C202.68 38.0015 201.01 31.2449 196.456 31.2449C191.447 31.2449 182.946 33.2187 170.954 37.1664C159.114 40.9622 149.171 45.0617 141.126 49.4649C132.777 53.7162 127.995 55.1587 126.781 53.7922C126.477 51.9701 123.897 53.033 119.039 56.9807C113.726 61.232 109.4 61.6116 106.06 58.1194C104.087 56.2974 104.694 53.1848 107.882 48.7816C111.07 44.3785 115.396 40.3549 120.861 36.7109C126.325 33.0669 131.031 31.2449 134.978 31.2449C136.951 31.2449 138.621 30.8653 139.987 30.1061C141.353 29.347 142.036 28.3601 142.036 27.1454C142.036 25.9307 144.162 24.4124 148.412 22.5904C152.662 20.7684 157.823 19.0982 163.895 17.5799Z" fill="white"/>
<path d="M451.477 174.727C458.763 167.743 466.125 161.746 473.564 156.735C481.002 151.725 486.163 149.219 489.047 149.219C496.789 149.219 504.682 152.18 512.728 158.102C520.773 164.023 524.796 169.717 524.796 175.183C524.796 179.434 523.657 182.319 521.38 183.837C519.103 185.204 516.295 185.052 512.955 183.382C509.616 181.56 506.504 178.523 503.62 174.272C500.584 169.869 498.383 167.515 497.016 167.212C495.195 166.756 491.324 169.261 485.404 174.727C484.645 175.487 483.355 176.777 481.533 178.599C462.862 196.212 449.276 211.699 440.775 225.06C432.275 238.27 428.024 250.492 428.024 261.728C428.024 269.472 431.895 271.901 439.637 269.016C447.986 265.828 458.308 257.629 470.604 244.419C502.633 209.801 523.429 187.861 532.993 178.599C542.556 169.186 549.007 164.479 552.347 164.479C555.686 164.479 559.633 166.756 564.187 171.311C568.741 175.714 572.612 181.029 575.8 187.254C579.139 193.479 580.809 199.021 580.809 203.879C580.809 216.482 583.39 224.984 588.551 229.388C593.864 233.639 604.186 235.765 619.518 235.765C637.885 235.916 646.082 237.738 644.109 241.231C643.198 242.749 641.756 243.812 639.783 244.419C637.809 244.875 635.76 244.723 633.635 243.964C631.661 243.204 629.992 243.053 628.625 243.508C627.259 243.964 626.576 244.875 626.576 246.241C626.576 247.608 624.603 248.822 620.656 249.885C616.861 250.796 612.155 251.252 606.539 251.252C598.038 251.252 591.738 250.189 587.64 248.063C583.693 245.937 579.139 241.458 573.978 234.626C570.487 230.071 567.147 225.06 563.959 219.594C560.923 214.128 558.95 209.801 558.039 206.612C557.128 203.576 555.99 200.919 554.624 198.641C553.258 196.364 552.043 195.225 550.981 195.225C549.918 195.225 545.744 198.793 538.457 205.929C531.323 212.914 523.277 221.34 514.321 231.21C496.106 251.1 481.078 265.372 469.237 274.027C457.397 282.529 446.695 286.781 437.132 286.781C430.605 286.781 424.457 284.275 418.689 279.265C413.072 274.406 408.822 267.953 405.938 259.906C403.053 251.707 406.241 238.953 415.501 221.644C424.912 204.183 436.904 188.544 451.477 174.727Z" fill="white"/>
<path d="M738.376 149.447C753.555 134.871 762.056 127.583 763.878 127.583C767.065 127.583 766.23 132.973 761.373 143.753C757.274 152.863 752.265 161.214 746.345 168.806C742.55 173.816 738.679 180.042 734.732 187.481C730.786 194.921 728.053 201.222 726.535 206.385C722.437 220.961 717.124 234.626 710.596 247.38C704.069 259.982 698.149 268.029 692.836 271.521C688.889 273.951 685.398 274.938 682.362 274.482C679.326 274.027 675.152 271.825 669.839 267.877C657.998 259.223 646.614 244.343 635.684 223.238C626.121 204.715 621.795 191.201 622.705 182.699C623.464 176.929 626.956 175.79 633.179 179.282C636.064 180.801 638.492 183.078 640.466 186.115C642.439 189.152 643.426 192.036 643.426 194.769C643.426 197.654 643.881 200.084 644.792 202.057C645.703 203.879 646.765 204.79 647.98 204.79C649.346 204.79 651.319 206.537 653.9 210.029C656.48 213.521 658.909 217.848 661.186 223.01C663.615 228.173 666.12 232.348 668.7 235.537C671.433 238.725 673.558 240.016 675.076 239.409C676.594 238.953 679.554 235.309 683.956 228.477C688.51 221.492 693.14 213.521 697.845 204.563C702.703 195.605 709.078 185.659 716.972 174.727C725.017 163.795 732.152 155.369 738.376 149.447Z" fill="white"/>
<path d="M777.767 170.172C784.294 160.455 789.683 154.61 793.934 152.636C798.336 150.662 803.573 151.725 809.645 155.824C812.529 157.646 813.516 161.062 812.605 166.073C811.846 170.932 808.81 180.042 803.497 193.403C792.871 219.822 788.393 237.055 790.063 245.102C790.518 247.076 791.429 248.063 792.795 248.063C793.554 248.063 795.072 247.228 797.349 245.558C799.778 243.736 802.131 241.686 804.408 239.409C808.506 235.309 811.087 233.563 812.149 234.17C813.212 234.626 814.123 238.042 814.882 244.419C815.793 252.314 813.895 259.147 809.189 264.917C804.635 270.686 798.639 273.571 791.201 273.571C785.888 273.571 781.107 271.142 776.856 266.283C772.758 261.273 769.722 254.82 767.748 246.924C765.775 239.029 764.637 230.602 764.333 221.644C764.029 212.534 765.016 203.348 767.293 194.086C769.722 184.824 773.213 176.853 777.767 170.172ZM825.811 76.7949C825.811 72.5436 826.798 70.342 828.771 70.1902C830.896 70.0383 836.741 72.3917 846.304 77.2504C853.439 81.0462 858.296 85.9049 860.877 91.8264C861.939 96.8369 860.421 99.6458 856.323 100.253C851.617 100.253 845.317 97.2924 837.424 91.3709C829.682 85.4494 825.811 80.5907 825.811 76.7949Z" fill="white"/>
<path d="M1032.33 50.8314C1035.52 46.1246 1038.18 43.3916 1040.3 42.6324C1042.43 41.7214 1045.54 42.3287 1049.64 44.4544C1055.56 47.6429 1058.67 50.6796 1058.97 53.5644C1059.28 56.4492 1057 61.1561 1052.14 67.6849C1050.17 70.4179 1048.42 74.8211 1046.91 80.8944C1045.54 86.8159 1044.78 92.7374 1044.63 98.6589C1044.63 104.732 1043.87 110.35 1042.35 115.512C1040.83 120.523 1039.01 123.939 1036.89 125.761C1034.91 127.431 1033.09 129.861 1031.42 133.049C1029.9 136.238 1029.14 139.123 1029.14 141.704C1029.14 144.133 1028.69 146.335 1027.78 148.308C1027.02 150.282 1026.11 151.269 1025.05 151.269C1023.98 151.269 1021.86 155.748 1018.67 164.706C1015.63 173.513 1012.52 184.141 1009.34 196.591C1003.57 218.456 1000.46 236.448 1000 250.568C999.544 264.689 1001.59 278.733 1006.15 292.702C1008.58 300.294 1007.97 304.09 1004.33 304.09C999.468 304.09 993.7 299.99 987.021 291.791C980.494 283.744 976.471 275.773 974.953 267.877C972.98 257.401 970.095 251.555 966.3 250.341C962.506 249.126 956.661 252.087 948.768 259.223C938.142 268.788 925.922 276.76 912.109 283.137C898.295 289.665 887.441 292.474 879.548 291.563C870.592 290.5 861.863 285.338 853.363 276.076C845.014 266.663 840.839 257.477 840.839 248.519C840.839 241.686 844.255 233.943 851.086 225.288C858.068 216.633 864.292 212.306 869.757 212.306C871.73 212.306 874.918 211.547 879.32 210.029C883.722 208.51 887.973 206.688 892.071 204.563C899.965 200.311 904.822 198.945 906.644 200.463C906.947 200.767 907.099 201.071 907.099 201.374C907.099 202.741 907.934 203.652 909.604 204.107C911.425 204.563 913.627 204.487 916.207 203.879C922.127 202.361 927.971 204.335 933.74 209.801C939.66 215.267 942.696 221.72 942.848 229.16C942.999 233.715 943.683 235.916 944.897 235.765C946.415 235.765 950.817 231.437 958.103 222.783C962.354 217.924 965.921 213.369 968.805 209.118C971.689 204.715 973.131 201.906 973.131 200.691C973.131 194.162 981.328 170.172 997.723 128.722C1014.12 87.2714 1025.65 61.3079 1032.33 50.8314ZM924.86 222.555C923.038 219.67 920.002 218 915.752 217.544C911.501 217.089 908.238 218.076 905.961 220.505C903.987 222.479 900.42 223.846 895.259 224.605C889.794 225.516 882.736 231.058 874.083 241.231C865.431 251.403 861.104 259.299 861.104 264.917C861.104 267.953 864.52 269.699 871.351 270.155C878.182 270.61 885.316 269.623 892.754 267.194C902.925 263.55 912.184 258.16 920.533 251.024C926.302 245.861 927.212 243.128 923.266 242.825C921.596 242.825 920.154 242.066 918.939 240.547C917.725 239.029 917.118 237.283 917.118 235.309C917.118 233.183 917.649 231.361 918.712 229.843C919.774 228.325 921.065 227.566 922.583 227.566C924.101 227.566 925.087 227.11 925.543 226.199C925.998 225.288 925.77 224.073 924.86 222.555Z" fill="white"/>
<path d="M1196.2 27.2694C1198.94 22.1823 1201.61 19.4431 1204.22 19.0518C1206.83 18.6605 1209.83 20.4866 1213.22 24.5302C1215.69 27.5303 1215.56 41.096 1212.83 65.2272C1210.22 89.3584 1206.17 113.555 1200.7 137.816C1198.09 149.426 1197.5 155.817 1198.94 156.991C1200.11 158.035 1203.31 157.187 1208.52 154.447C1217.78 149.491 1223.65 148.121 1226.13 150.339C1228.35 152.295 1226.91 155.621 1221.82 160.317C1219.35 162.665 1216.09 165.013 1212.04 167.361C1208.65 169.448 1206.04 171.078 1204.22 172.252C1202.52 173.426 1200.76 175.122 1198.94 177.339C1197.24 179.557 1196 181.579 1195.22 183.405C1194.57 185.101 1193.85 188.101 1193.07 192.405C1192.29 196.71 1191.7 200.949 1191.31 205.123C1190.92 209.297 1190.46 215.428 1189.94 223.515C1188.37 243.733 1186.74 255.081 1185.05 257.559C1184 259.125 1182.05 258.994 1179.18 257.168C1177.87 256.385 1176.7 252.603 1175.66 245.82C1174.74 239.037 1174.29 231.015 1174.29 221.754V189.47L1162.35 195.731C1154.27 200.036 1148.79 202.188 1145.92 202.188C1143.57 202.188 1139.47 207.406 1133.6 217.841C1127.86 228.276 1119.06 246.537 1107.19 272.625C1102.88 281.756 1098.71 289.908 1094.67 297.082C1090.76 304.387 1088.15 308.431 1086.84 309.213C1082.28 312.083 1079.08 311.496 1077.26 307.452C1075.3 303.409 1075.63 298.061 1078.24 291.408C1079.02 289.06 1079.74 286.908 1080.39 284.952C1081.04 283.125 1081.5 281.625 1081.76 280.451C1082.02 279.278 1082.02 278.691 1081.76 278.691C1081.63 278.691 1081.76 278.104 1082.15 276.93C1082.67 275.886 1083.45 274.321 1084.5 272.234C1085.54 270.277 1086.78 268.06 1088.21 265.581C1094.6 254.233 1100.54 241.711 1106.01 228.015C1111.49 214.319 1113.97 205.84 1113.45 202.579C1113.06 200.753 1113.51 198.666 1114.82 196.318C1116.12 193.97 1117.88 192.014 1120.1 190.449C1122.32 188.753 1124.27 186.862 1125.97 184.774C1127.66 182.557 1128.64 180.666 1128.9 179.1C1129.42 175.579 1140.05 152.295 1160.79 109.25C1169.4 91.5106 1176.7 75.858 1182.7 62.2923C1188.83 48.7267 1191.89 41.2916 1191.89 39.9872C1191.89 36.9871 1193.33 32.7479 1196.2 27.2694ZM1185.63 120.403C1186.16 117.794 1186.48 115.381 1186.61 113.163C1186.87 110.946 1186.94 109.185 1186.81 107.881C1186.81 106.576 1186.61 105.924 1186.22 105.924C1184.92 105.924 1178.98 117.077 1168.42 139.382C1157.86 161.687 1152.96 173.296 1153.75 174.209C1154.66 174.992 1158.18 174.665 1164.31 173.231C1168.88 172.057 1172.66 167.752 1175.66 160.317C1178.66 152.752 1181.98 139.447 1185.63 120.403Z" fill="white"/>
<path d="M1277.38 154.643C1288.99 148.512 1298.84 146.556 1306.92 148.773C1312.79 150.339 1315.14 153.665 1313.96 158.752C1313.31 161.361 1311.62 164.23 1308.88 167.361C1303.53 173.231 1296.88 175.513 1288.92 174.209C1284.75 173.557 1280.38 174.209 1275.82 176.166C1271.38 178.122 1267.99 180.731 1265.64 183.992C1263.3 187.122 1262.91 189.927 1264.47 192.405C1265.51 194.101 1271.97 196.188 1283.84 198.666C1295.71 201.145 1308.29 202.971 1321.59 204.145C1324.72 204.536 1327.33 207.275 1329.42 212.362C1331.64 217.319 1332.09 221.884 1330.79 226.058C1328.05 234.928 1320.03 243.537 1306.73 251.885C1293.55 260.103 1277.45 266.56 1258.41 271.256C1244.58 274.777 1233.04 275.299 1223.78 272.821C1214.52 270.473 1209.89 265.777 1209.89 258.733C1209.89 255.342 1210.54 253.19 1211.85 252.277C1213.28 251.364 1215.89 251.429 1219.67 252.472C1226.98 254.298 1239.63 252.668 1257.62 247.581C1275.62 242.363 1288.86 236.559 1297.34 230.167C1301.25 227.037 1304.44 224.232 1306.92 221.754C1309.53 219.145 1310.57 217.645 1310.05 217.254C1308.88 216.08 1301.83 214.906 1288.92 213.732C1271.97 212.297 1259.71 209.427 1252.15 205.123C1244.58 200.688 1240.8 194.297 1240.8 185.948C1240.8 180.992 1243.08 176.557 1247.65 172.644C1252.21 168.6 1262.12 162.6 1277.38 154.643Z" fill="white"/>
<path d="M1383.21 174.209C1389.47 168.209 1395.8 163.056 1402.19 158.752C1408.58 154.447 1413.02 152.295 1415.49 152.295C1422.14 152.295 1428.93 154.839 1435.84 159.926C1442.75 165.013 1446.21 169.904 1446.21 174.6C1446.21 178.253 1445.23 180.731 1443.27 182.035C1441.32 183.209 1438.9 183.079 1436.03 181.644C1433.16 180.079 1430.49 177.47 1428.01 173.818C1425.4 170.035 1423.51 168.013 1422.34 167.752C1420.77 167.361 1417.45 169.513 1412.36 174.209C1411.71 174.861 1410.6 175.97 1409.04 177.535C1393 192.666 1381.32 205.971 1374.02 217.449C1366.72 228.798 1363.07 239.298 1363.07 248.95C1363.07 255.603 1366.39 257.69 1373.04 255.212C1380.22 252.472 1389.08 245.429 1399.65 234.08C1427.17 204.34 1445.03 185.492 1453.25 177.535C1461.46 169.448 1467.01 165.404 1469.88 165.404C1472.75 165.404 1476.14 167.361 1480.05 171.274C1483.96 175.057 1487.29 179.622 1490.03 184.97C1492.9 190.318 1494.33 195.079 1494.33 199.253C1494.33 210.08 1496.55 217.384 1500.98 221.167C1505.55 224.819 1514.41 226.645 1527.59 226.645C1543.37 226.776 1550.41 228.341 1548.71 231.341C1547.93 232.646 1546.69 233.559 1545 234.08C1543.3 234.472 1541.54 234.341 1539.71 233.689C1538.02 233.037 1536.58 232.906 1535.41 233.298C1534.24 233.689 1533.65 234.472 1533.65 235.646C1533.65 236.82 1531.95 237.863 1528.56 238.776C1525.3 239.559 1521.26 239.95 1516.44 239.95C1509.13 239.95 1503.72 239.037 1500.2 237.211C1496.81 235.385 1492.9 231.537 1488.46 225.667C1485.46 221.754 1482.59 217.449 1479.85 212.754C1477.25 208.058 1475.55 204.34 1474.77 201.601C1473.98 198.992 1473.01 196.71 1471.83 194.753C1470.66 192.796 1469.62 191.818 1468.7 191.818C1467.79 191.818 1464.2 194.883 1457.94 201.014C1451.81 207.014 1444.9 214.254 1437.21 222.732C1421.56 239.82 1408.65 252.081 1398.47 259.516C1388.3 266.821 1379.11 270.473 1370.89 270.473C1365.28 270.473 1360 268.321 1355.04 264.016C1350.22 259.842 1346.57 254.298 1344.09 247.385C1341.61 240.341 1344.35 229.385 1352.31 214.515C1360.39 199.514 1370.69 186.079 1383.21 174.209Z" fill="white"/>
<path d="M1679.2 67.7707C1681.93 63.7271 1684.22 61.3792 1686.04 60.727C1687.87 59.9444 1690.54 60.4662 1694.06 62.2923C1699.15 65.0315 1701.82 67.6403 1702.08 70.1186C1702.34 72.597 1700.39 76.6406 1696.21 82.2495C1694.52 84.5974 1693.02 88.3801 1691.72 93.5977C1690.54 98.6848 1689.89 103.772 1689.76 108.859C1689.76 114.077 1689.11 118.903 1687.8 123.338C1686.5 127.642 1684.93 130.577 1683.11 132.142C1681.41 133.577 1679.85 135.664 1678.41 138.403C1677.11 141.143 1676.46 143.621 1676.46 145.838C1676.46 147.925 1676.07 149.817 1675.28 151.513C1674.63 153.208 1673.85 154.056 1672.94 154.056C1672.02 154.056 1670.2 157.904 1667.46 165.6C1664.85 173.165 1662.18 182.296 1659.44 192.992C1654.48 211.775 1651.81 227.232 1651.42 239.363C1651.03 251.494 1652.79 263.56 1656.7 275.56C1658.79 282.082 1658.26 285.343 1655.13 285.343C1650.96 285.343 1646 281.821 1640.27 274.777C1634.66 267.864 1631.2 261.016 1629.9 254.233C1628.2 245.233 1625.72 240.211 1622.46 239.168C1619.2 238.124 1614.18 240.668 1607.4 246.798C1598.27 255.016 1587.77 261.864 1575.91 267.342C1564.04 272.951 1554.71 275.364 1547.93 274.582C1540.24 273.669 1532.74 269.234 1525.43 261.277C1518.26 253.19 1514.67 245.298 1514.67 237.602C1514.67 231.733 1517.61 225.08 1523.48 217.645C1529.48 210.21 1534.82 206.493 1539.52 206.493C1541.21 206.493 1543.95 205.84 1547.74 204.536C1551.52 203.232 1555.17 201.666 1558.69 199.84C1565.47 196.188 1569.65 195.014 1571.21 196.318C1571.47 196.579 1571.6 196.84 1571.6 197.101C1571.6 198.275 1572.32 199.058 1573.75 199.449C1575.32 199.84 1577.21 199.775 1579.43 199.253C1584.51 197.949 1589.53 199.645 1594.49 204.34C1599.58 209.036 1602.18 214.58 1602.31 220.971C1602.45 224.884 1603.03 226.776 1604.08 226.645C1605.38 226.645 1609.16 222.928 1615.42 215.493C1619.07 211.319 1622.14 207.406 1624.62 203.753C1627.09 199.971 1628.33 197.558 1628.33 196.514C1628.33 190.905 1635.38 170.296 1649.46 134.686C1663.55 99.0761 1673.46 76.771 1679.2 67.7707ZM1586.86 215.297C1585.3 212.819 1582.69 211.384 1579.04 210.993C1575.38 210.601 1572.58 211.449 1570.62 213.536C1568.93 215.232 1565.86 216.406 1561.43 217.058C1556.73 217.841 1550.67 222.602 1543.24 231.341C1535.8 240.081 1532.09 246.863 1532.09 251.69C1532.09 254.298 1535.02 255.799 1540.89 256.19C1546.76 256.581 1552.89 255.733 1559.28 253.646C1568.02 250.516 1575.97 245.885 1583.14 239.755C1588.1 235.32 1588.88 232.972 1585.49 232.711C1584.06 232.711 1582.82 232.059 1581.77 230.754C1580.73 229.45 1580.21 227.95 1580.21 226.254C1580.21 224.428 1580.67 222.863 1581.58 221.558C1582.49 220.254 1583.6 219.602 1584.9 219.602C1586.21 219.602 1587.06 219.21 1587.45 218.428C1587.84 217.645 1587.64 216.602 1586.86 215.297Z" fill="white"/>
<path d="M1721.25 174.209C1727.51 168.209 1733.84 163.056 1740.23 158.752C1746.62 154.447 1751.05 152.295 1753.53 152.295C1760.18 152.295 1766.97 154.839 1773.88 159.926C1780.79 165.013 1784.25 169.904 1784.25 174.6C1784.25 178.253 1783.27 180.731 1781.31 182.035C1779.36 183.209 1776.94 183.079 1774.07 181.644C1771.2 180.079 1768.53 177.47 1766.05 173.818C1763.44 170.035 1761.55 168.013 1760.38 167.752C1758.81 167.361 1755.49 169.513 1750.4 174.209C1749.75 174.861 1748.64 175.97 1747.08 177.535C1731.04 192.666 1719.36 205.971 1712.06 217.449C1704.76 228.798 1701.11 239.298 1701.11 248.95C1701.11 255.603 1704.43 257.69 1711.08 255.212C1718.26 252.472 1727.12 245.429 1737.69 234.08C1765.21 204.34 1783.07 185.492 1791.29 177.535C1799.5 169.448 1805.05 165.404 1807.92 165.404C1810.79 165.404 1814.18 167.361 1818.09 171.274C1822 175.057 1825.33 179.622 1828.07 184.97C1830.93 190.318 1832.37 195.079 1832.37 199.253C1832.37 210.08 1834.59 217.384 1839.02 221.167C1843.59 224.819 1852.45 226.645 1865.63 226.645C1881.41 226.776 1888.45 228.341 1886.75 231.341C1885.97 232.646 1884.73 233.559 1883.04 234.08C1881.34 234.472 1879.58 234.341 1877.75 233.689C1876.06 233.037 1874.62 232.906 1873.45 233.298C1872.28 233.689 1871.69 234.472 1871.69 235.646C1871.69 236.82 1869.99 237.863 1866.6 238.776C1863.34 239.559 1859.3 239.95 1854.48 239.95C1847.17 239.95 1841.76 239.037 1838.24 237.211C1834.85 235.385 1830.93 231.537 1826.5 225.667C1823.5 221.754 1820.63 217.449 1817.89 212.754C1815.28 208.058 1813.59 204.34 1812.81 201.601C1812.02 198.992 1811.05 196.71 1809.87 194.753C1808.7 192.796 1807.66 191.818 1806.74 191.818C1805.83 191.818 1802.24 194.883 1795.98 201.014C1789.85 207.014 1782.94 214.254 1775.25 222.732C1759.6 239.82 1746.69 252.081 1736.51 259.516C1726.34 266.821 1717.15 270.473 1708.93 270.473C1703.32 270.473 1698.04 268.321 1693.08 264.016C1688.26 259.842 1684.61 254.298 1682.13 247.385C1679.65 240.341 1682.39 229.385 1690.35 214.515C1698.43 199.514 1708.73 186.079 1721.25 174.209Z" fill="white"/>
</svg>
